<?xml version="1.0" encoding="UTF-8"?>
<svg version="1.1" xmlns="http://www.w3.org/2000/svg" viewBox="0 0 978 255">
<path d="M0 0 C15.32652989 7.35673435 21.86976155 28.29312019 27.89453125 42.9453125 C30.20086681 48.53140102 32.6435181 54.05229457 35.125 59.5625 C35.52066162 60.45412842 35.91632324 61.34575684 36.32397461 62.2644043 C38.75640871 67.63642674 41.48732408 72.68813903 44.59033203 77.70336914 C47.24094058 82.02174022 49.9355793 86.45099254 51.890625 91.1328125 C53.29324986 93.49356842 54.50581811 93.91440285 57 95 C58.59699597 96.02059676 60.18018683 97.06306756 61.75 98.125 C62.54921875 98.66382813 63.3484375 99.20265625 64.171875 99.7578125 C64.77515625 100.16773438 65.3784375 100.57765625 66 101 C65.67 101.99 65.34 102.98 65 104 C55.9360944 104.8056805 48.45203983 101.48067893 41.4375 95.875 C39.6025965 94.27534054 37.78991968 92.64983901 36 91 C35.13117188 90.20078125 34.26234375 89.4015625 33.3671875 88.578125 C23.05652459 78.67736612 15.74571677 66.70243922 8.10986328 54.7265625 C7.09006086 53.14010348 6.04614298 51.56921447 5 50 C4.90501221 50.71953857 4.81002441 51.43907715 4.7121582 52.18041992 C-0.5360251 91.09172791 -0.5360251 91.09172791 -15.8203125 103.4921875 C-23.88441097 109.0705782 -32.33270727 110.36264836 -42 109 C-56.8008898 104.5032967 -65.12621574 92.42717202 -72.63671875 79.83203125 C-76.10527589 74.07294438 -80.24465581 68.75534419 -85 64 C-87.70795325 64.16854481 -88.85665772 64.86985241 -90.8671875 66.6953125 C-97.04153343 74.16699181 -101.96325084 82.23696722 -106.86279297 90.58642578 C-118.03212948 109.49157386 -118.03212948 109.49157386 -125.1484375 111.65234375 C-129.25495482 112.17826614 -131.43117227 112.27347487 -135.25 110.4375 C-139.14081544 106.98882268 -142.10728613 103.3390708 -145 99 C-144.625 96.8125 -144.625 96.8125 -144 95 C-140.52509092 96.15830303 -139.92236257 97.15765645 -137.75 100 C-135.16947068 103.03334947 -134.21120809 103.92840404 -130.3125 105.25 C-127.01714398 105.31587503 -127.01714398 105.31587503 -125.05859375 103.4375 C-122.51759998 100.42880908 -120.62983331 97.1902694 -118.75 93.75 C-118.36086426 93.04979736 -117.97172852 92.34959473 -117.57080078 91.62817383 C-114.86593659 86.71388 -112.34343142 81.72370585 -109.875 76.6875 C-100.38570522 57.43825437 -100.38570522 57.43825437 -92 52 C-87.28294019 50.42764673 -83.26784611 49.9458211 -78.72265625 52.05859375 C-71.79813958 56.42636581 -67.01686002 62.24790075 -62.1875 68.75 C-52.35386966 83.08558862 -52.35386966 83.08558862 -37.87109375 91.4921875 C-34.37364334 91.71782946 -31.90494595 90.9561289 -28.75 89.5 C-21.78094511 83.16449556 -19.42814644 72.91328675 -18.76638794 63.77349854 C-18.72113485 60.36760814 -18.7657951 56.97548325 -18.84765625 53.5703125 C-18.87582392 51.03906442 -18.90381355 48.50781435 -18.93164062 45.9765625 C-18.99401274 42.03306715 -19.06315915 38.08978209 -19.13696289 34.14648438 C-19.20325595 30.30861528 -19.24523478 26.47103264 -19.28515625 22.6328125 C-19.31521255 21.45461945 -19.34526886 20.27642639 -19.37623596 19.06253052 C-19.4337993 12.70966233 -19.35951653 8.78274653 -15 4 C-10.26366538 -0.18559803 -6.1028712 -1.05753725 0 0 Z " fill="#AD1E86" transform="translate(188,45)"/>
<path d="M0 0 C1.65425049 1.15206731 3.25622825 2.37868542 4.84375 3.62109375 C5.6275 2.87859375 6.41125 2.13609375 7.21875 1.37109375 C16.0646685 -5.81621503 25.90116716 -6.42729742 36.84375 -5.37890625 C43.90750906 -4.01062362 48.68044867 -1.37588627 53.40625 4.03515625 C57.57391423 11.5324218 58.27337783 19.23511268 58.13671875 27.66015625 C58.13247391 28.66702484 58.12822906 29.67389343 58.12385559 30.71127319 C58.1072216 33.88983254 58.06959875 37.06772989 58.03125 40.24609375 C58.01618339 42.41665743 58.00249847 44.58723117 57.99023438 46.7578125 C57.95736829 52.04582338 57.90569345 57.33334679 57.84375 62.62109375 C52.56375 62.62109375 47.28375 62.62109375 41.84375 62.62109375 C41.82916748 61.38544678 41.81458496 60.1497998 41.79956055 58.87670898 C41.74137804 54.27127847 41.66414655 49.66632669 41.58129883 45.0612793 C41.54814316 43.07210081 41.52008235 41.08283036 41.49731445 39.09350586 C41.463596 36.22600291 41.41127177 33.35933558 41.35546875 30.4921875 C41.34907883 29.60961777 41.3426889 28.72704803 41.33610535 27.81773376 C41.20749403 22.35765816 40.41590348 18.46541469 37.84375 13.62109375 C34.65172857 10.62857366 31.91097097 9.70163873 27.53125 9.37109375 C23.55048372 9.64097621 21.28978092 10.69772766 17.84375 12.62109375 C17.18375 12.62109375 16.52375 12.62109375 15.84375 12.62109375 C13.33106474 19.008681 12.38342896 24.6287229 12.33203125 31.46875 C12.31408005 32.36605331 12.29612885 33.26335663 12.27763367 34.18785095 C12.2239767 37.01971912 12.18977966 39.85142317 12.15625 42.68359375 C12.12303743 44.61786117 12.0885442 46.55210705 12.05273438 48.48632812 C11.96827653 53.19779732 11.90125447 57.90922164 11.84375 62.62109375 C6.56375 62.62109375 1.28375 62.62109375 -4.15625 62.62109375 C-4.1655957 61.39068359 -4.17494141 60.16027344 -4.18457031 58.89257812 C-4.22463225 54.30009597 -4.29043566 49.70827233 -4.36376953 45.11621094 C-4.39188547 43.13387553 -4.41314638 41.15142996 -4.42724609 39.16894531 C-4.44880592 36.308675 -4.49552215 33.44971605 -4.546875 30.58984375 C-4.54810364 29.7124353 -4.54933228 28.83502686 -4.55059814 27.93103027 C-4.68730229 22.1056743 -5.75891635 17.4496131 -9.15625 12.62109375 C-13.57148006 9.41001734 -17.86028129 8.84942565 -23.15625 9.62109375 C-26.83014249 10.93814955 -28.63834035 11.92459456 -30.96875 15.05859375 C-32.65054595 18.68773238 -33.27547934 21.85399468 -33.36157227 25.83886719 C-33.38151749 26.65941589 -33.40146271 27.4799646 -33.42201233 28.32537842 C-33.43872482 29.20155823 -33.45543732 30.07773804 -33.47265625 30.98046875 C-33.49343735 31.8848468 -33.51421844 32.78922485 -33.53562927 33.7210083 C-33.6009094 36.6042943 -33.65990952 39.48766985 -33.71875 42.37109375 C-33.76195571 44.32813419 -33.80557065 46.28516563 -33.84960938 48.2421875 C-33.95656872 53.03506495 -34.05789673 57.82803229 -34.15625 62.62109375 C-39.43625 62.62109375 -44.71625 62.62109375 -50.15625 62.62109375 C-50.20600529 56.53793505 -50.24213679 50.45489707 -50.26611328 44.37158203 C-50.27611782 42.30580581 -50.28972571 40.24004355 -50.30712891 38.17431641 C-50.33162271 35.19039443 -50.34278886 32.20666107 -50.3515625 29.22265625 C-50.36188507 28.31182281 -50.37220764 27.40098938 -50.38284302 26.46255493 C-50.38414697 18.86512646 -50.22097649 9.69876553 -45.15625 3.62109375 C-32.5017734 -7.77670273 -14.38161103 -9.19693604 0 0 Z " fill="#64318E" transform="translate(318.15625,91.37890625)"/>
<path d="M0 0 C0.86882813 0.02449219 1.73765625 0.04898438 2.6328125 0.07421875 C4.875 0.3125 4.875 0.3125 6.875 1.3125 C6.92158237 9.59745522 6.95699963 17.88235464 6.97862434 26.16740894 C6.98900927 30.01554339 7.00307028 33.86358746 7.02587891 37.71166992 C7.04779796 41.43346213 7.05960828 45.15516805 7.06475449 48.87701988 C7.06841636 50.28860518 7.07556579 51.70018639 7.08646011 53.11173439 C7.18725871 66.72809544 6.70908099 78.59755344 -2.7578125 89.12890625 C-10.79033431 96.58233928 -20.33039345 98.64512449 -30.99609375 98.52734375 C-41.27260214 97.82171583 -49.40031097 93.4201439 -56.4375 86.0625 C-64.25135925 76.65209584 -64.08342753 66.07035197 -63.125 54.3125 C-61.89197551 46.72939938 -57.91734902 40.32898926 -51.91015625 35.55078125 C-42.91038511 29.36624634 -33.85735822 27.18583443 -22.9375 28.875 C-19.19180762 29.78525135 -16.48625103 31.21098184 -13.32421875 33.40234375 C-12.53233154 33.94624756 -11.74044434 34.49015137 -10.92456055 35.05053711 C-10.33070557 35.46698486 -9.73685059 35.88343262 -9.125 36.3125 C-9.14594727 35.36407227 -9.16689453 34.41564453 -9.18847656 33.43847656 C-9.2567356 29.91233575 -9.30683929 26.38689901 -9.34472656 22.86035156 C-9.36481599 21.33549915 -9.39209316 19.81072352 -9.42675781 18.28613281 C-9.47539796 16.09160402 -9.49799396 13.89809531 -9.515625 11.703125 C-9.53657227 10.38344727 -9.55751953 9.06376953 -9.57910156 7.70410156 C-9.125 4.3125 -9.125 4.3125 -7.25732422 1.87719727 C-4.62933544 -0.05121813 -3.22545804 -0.13960938 0 0 Z M-40.875 47 C-45.62241967 51.87929244 -47.37549273 56.49837051 -47.625 63.3125 C-47.37282872 70.19938448 -45.62637542 74.87526241 -40.6875 79.6875 C-34.91129906 83.35045669 -29.90841854 84.14881187 -23.125 83.3125 C-17.80180306 81.62909584 -14.14871898 79.08067224 -11.125 74.3125 C-8.30250552 68.17485745 -7.89322406 61.95692798 -10.0703125 55.515625 C-12.3010389 50.77357769 -14.46419755 46.97581568 -19.125 44.3125 C-27.57695248 41.34690264 -33.43187183 42.4326259 -40.875 47 Z " fill="#25A7DF" transform="translate(851.125,57.6875)"/>
<path d="M0 0 C8.36903375 5.66175139 12.84798646 12.10073771 15 22 C16.33224094 33.27963997 14.92267573 43.22254829 8.08203125 52.640625 C1.65387391 59.92506597 -7.90087251 64.39349458 -17.49609375 65.34765625 C-29.5376267 65.64577816 -38.49221843 62.57809849 -47.625 54.75 C-56.62268234 44.33163098 -57.95520407 35.89125536 -57.26074219 22.44775391 C-56.31594324 13.57832112 -51.02892473 7.0721548 -44.30859375 1.62109375 C-31.49696543 -7.37522732 -13.43007982 -8.30827354 0 0 Z M-35.71875 15.12890625 C-39.94229078 21.17534317 -41.49745358 25.53819623 -41 33 C-39.61570225 38.95951915 -36.81475028 44.14819978 -32 48 C-26.15720092 51.02735704 -20.67717783 51.55297561 -14.328125 49.92578125 C-9.13912182 47.86236891 -5.9628684 44.60478067 -3.125 39.875 C-0.39712766 32.90377069 -0.18051609 26.837929 -3.09375 19.8515625 C-5.31621304 15.31084059 -8.30604007 12.10995729 -12.8125 9.73046875 C-21.26136336 6.90915188 -30.06781181 8.12944872 -35.71875 15.12890625 Z " fill="#64318F" transform="translate(445,91)"/>
<path d="M0 0 C7.16237376 5.17518697 12.7732555 12.43603695 14.3203125 21.33984375 C15.16481763 32.98293902 14.3430866 42.84806798 6.6953125 52.15234375 C-1.23834941 60.3962606 -10.11289822 64.34545893 -21.4921875 64.65234375 C-31.56072601 64.47102473 -40.02614008 62.1124073 -47.6796875 55.33984375 C-55.09694686 47.09268124 -59.47397143 38.26855003 -59.015625 27.0390625 C-57.46298663 14.56379372 -52.3268202 6.74063906 -42.6796875 -1.09765625 C-29.14899281 -8.14489307 -13.06538638 -8.09444491 0 0 Z M-38.3828125 16.42578125 C-42.38263313 22.32913097 -42.40543693 28.4317844 -41.6796875 35.33984375 C-40.09783018 40.63265283 -37.49581289 44.51298754 -32.6796875 47.33984375 C-25.95447459 50.27769992 -20.59141515 51.01149232 -13.6796875 48.33984375 C-8.19819001 45.599095 -5.32581425 41.73752063 -2.6796875 36.33984375 C-0.70325342 29.77257862 -1.53650932 24.49182189 -4.48046875 18.41796875 C-7.374424 13.40303653 -11.25826573 10.24738104 -16.6796875 8.33984375 C-26.28371912 7.29343433 -32.10647372 9.03589849 -38.3828125 16.42578125 Z " fill="#64318F" transform="translate(612.6796875,91.66015625)"/>
<path d="M0 0 C7.10772075 7.65029485 7.68713193 16.90805336 7.6328125 26.765625 C7.63139755 27.73517624 7.6299826 28.70472748 7.62852478 29.70365906 C7.62294138 32.79075242 7.61039189 35.87777242 7.59765625 38.96484375 C7.59263911 41.06184791 7.58807657 43.15885321 7.58398438 45.25585938 C7.57297737 50.38804896 7.55572413 55.52018393 7.53515625 60.65234375 C-12.09626491 63.01090803 -12.09626491 63.01090803 -20.96484375 62.90234375 C-21.80305664 62.89557617 -22.64126953 62.88880859 -23.50488281 62.88183594 C-32.89887751 62.72447646 -42.69871742 61.84625907 -50 55.26953125 C-54.42043678 50.34647921 -55.91560544 45.29677275 -55.71484375 38.734375 C-54.95003162 32.364924 -52.5266432 27.67877513 -47.46484375 23.65234375 C-41.36536159 20.6561069 -36.69658487 19.52401765 -29.94921875 19.5546875 C-28.69882812 19.55791016 -27.4484375 19.56113281 -26.16015625 19.56445312 C-24.20722656 19.57702148 -24.20722656 19.57702148 -22.21484375 19.58984375 C-20.23871094 19.59661133 -20.23871094 19.59661133 -18.22265625 19.60351562 C-14.97000634 19.61530059 -11.71744791 19.63175364 -8.46484375 19.65234375 C-8.89225731 18.3659516 -9.33383577 17.08426072 -9.78125 15.8046875 C-10.02560791 15.09046631 -10.26996582 14.37624512 -10.52172852 13.64038086 C-12.0440083 10.43149546 -14.38014496 9.22616967 -17.46484375 7.65234375 C-26.14300934 4.90702173 -35.14556117 6.60562357 -43.46484375 9.65234375 C-44.45484375 9.98234375 -45.44484375 10.31234375 -46.46484375 10.65234375 C-48.37573 7.44205486 -49.46484375 5.30068434 -49.46484375 1.52734375 C-48.18543686 -2.15095105 -46.66464542 -3.17731723 -43.46484375 -5.34765625 C-30.31131567 -9.39630486 -11.28886472 -8.78022811 0 0 Z M-37.77734375 34.83984375 C-39.9352724 38.43639151 -40.06555304 40.52246738 -39.46484375 44.65234375 C-36.63701059 48.83753683 -33.23203398 49.52263166 -28.46484375 50.65234375 C-24.67023549 50.92871643 -24.67023549 50.92871643 -20.83984375 50.83984375 C-19.56882812 50.83339844 -18.2978125 50.82695312 -16.98828125 50.8203125 C-13.19246093 50.72717438 -13.19246093 50.72717438 -8.46484375 49.65234375 C-8.46484375 43.71234375 -8.46484375 37.77234375 -8.46484375 31.65234375 C-12.60887997 30.27099834 -16.49990913 30.46810196 -20.83984375 30.46484375 C-21.690625 30.45259766 -22.54140625 30.44035156 -23.41796875 30.42773438 C-29.23340549 30.41414691 -33.38128261 30.68140754 -37.77734375 34.83984375 Z " fill="#25A7DF" transform="translate(768.46484375,93.34765625)"/>
<path d="M0 0 C2.12629258 2.72515346 1.58238545 5.27593197 1.234375 8.58203125 C-0.265625 11.01953125 -0.265625 11.01953125 -1.765625 12.58203125 C-7.765625 10.58203125 -7.765625 10.58203125 -9.7109375 9.81640625 C-18.71212796 6.42850431 -28.62654805 5.19718793 -37.765625 8.58203125 C-39.90168805 9.71108922 -39.90168805 9.71108922 -40.765625 11.58203125 C-41.00246605 14.15103451 -41.00246605 14.15103451 -39.765625 16.58203125 C-34.08546927 20.4409932 -27.43133903 20.71001988 -20.765625 21.58203125 C-3.53472391 23.83618461 -3.53472391 23.83618461 1.546875 30.08203125 C2.28357422 30.96375 2.28357422 30.96375 3.03515625 31.86328125 C6.09484907 36.24850874 5.77291936 41.46965238 5.234375 46.58203125 C3.46377378 52.43007414 0.31772541 56.1605454 -4.765625 59.58203125 C-18.20262926 65.89135152 -33.82770701 64.59114025 -47.765625 60.58203125 C-51.24824637 59.13738831 -54.5269161 57.51001561 -57.765625 55.58203125 C-57.03593596 51.0733211 -55.44406567 48.29728766 -52.765625 44.58203125 C-52.14816406 44.77539062 -51.53070312 44.96875 -50.89453125 45.16796875 C-48.19200534 45.99888235 -45.48173446 46.79669636 -42.765625 47.58203125 C-42.04761719 47.79472656 -41.32960938 48.00742188 -40.58984375 48.2265625 C-32.75607565 50.27720989 -23.18018988 51.19857954 -15.453125 48.39453125 C-12.59421599 46.83272998 -12.59421599 46.83272998 -11.765625 44.08203125 C-11.63386343 41.45026968 -11.63386343 41.45026968 -12.765625 38.58203125 C-14.69626268 38.2602583 -16.6269124 37.9385575 -18.55761719 37.6171875 C-20.20431318 37.34241105 -21.85079646 37.06635695 -23.49707031 36.7890625 C-27.13547498 36.17766195 -30.77173437 35.58113051 -34.421875 35.04296875 C-42.12282729 33.89560465 -47.97656281 32.05817116 -53.765625 26.58203125 C-57.5111242 21.28667031 -57.42010053 15.82681855 -56.765625 9.58203125 C-55.71961587 4.91857389 -53.41590886 1.53989864 -49.55859375 -1.35546875 C-36.79974163 -8.91627001 -11.90834111 -9.56355713 0 0 Z " fill="#25A7DF" transform="translate(924.765625,92.41796875)"/>
<path d="M0 0 C0.72574219 0.4125 1.45148437 0.825 2.19921875 1.25 C7.90192137 4.96044606 10.71487518 9.66513497 13 16 C13.60713016 19.85165464 13.58887244 23.58516534 13.48828125 27.4765625 C13.48120651 28.52782318 13.47413177 29.57908386 13.46684265 30.66220093 C13.43909827 33.98389169 13.37639651 37.30382821 13.3125 40.625 C13.28739139 42.89190255 13.26458275 45.15883181 13.24414062 47.42578125 C13.18933688 52.95118547 13.10320316 58.47529647 13 64 C7.72 64 2.44 64 -3 64 C-3.01458252 62.75911621 -3.02916504 61.51823242 -3.04418945 60.23974609 C-3.10230723 55.62129379 -3.17953947 51.00332216 -3.26245117 46.38525391 C-3.29563713 44.38923971 -3.32368868 42.39313311 -3.34643555 40.39697266 C-3.38009793 37.5220616 -3.43241977 34.64799257 -3.48828125 31.7734375 C-3.49467117 30.88570648 -3.5010611 29.99797546 -3.50764465 29.08334351 C-3.62895557 23.93273681 -4.34446796 20.54792432 -7 16 C-7 15.34 -7 14.68 -7 14 C-12.76431476 11.01845788 -17.5656436 10.43874773 -24 11 C-28.19277787 12.5246465 -30.86252942 14.04567943 -33 18 C-34.70583813 23.79747492 -35.32597741 29.0701733 -35.4140625 35.09375 C-35.43342865 35.92588013 -35.4527948 36.75801025 -35.4727478 37.61535645 C-35.53198326 40.24347042 -35.5787021 42.87162956 -35.625 45.5 C-35.6632315 47.29428873 -35.70228615 49.08856013 -35.7421875 50.8828125 C-35.83763781 55.25506561 -35.92187257 59.62740445 -36 64 C-41.28 64 -46.56 64 -52 64 C-52.09959145 57.79277108 -52.17180805 51.58601712 -52.21972656 45.37817383 C-52.23972278 43.27066943 -52.26692893 41.16321966 -52.30175781 39.0559082 C-52.69889756 14.39236164 -52.69889756 14.39236164 -46.02734375 5.31640625 C-33.57003401 -5.13842006 -14.57453484 -8.65278506 0 0 Z " fill="#64318E" transform="translate(687,90)"/>
<path d="M0 0 C15.32652989 7.35673435 21.86976155 28.29312019 27.89453125 42.9453125 C30.20086681 48.53140102 32.6435181 54.05229457 35.125 59.5625 C35.52066162 60.45412842 35.91632324 61.34575684 36.32397461 62.2644043 C38.75640871 67.63642674 41.48732408 72.68813903 44.59033203 77.70336914 C47.24094058 82.02174022 49.9355793 86.45099254 51.890625 91.1328125 C53.29324986 93.49356842 54.50581811 93.91440285 57 95 C58.59699597 96.02059676 60.18018683 97.06306756 61.75 98.125 C62.54921875 98.66382813 63.3484375 99.20265625 64.171875 99.7578125 C64.77515625 100.16773438 65.3784375 100.57765625 66 101 C65.505 102.485 65.505 102.485 65 104 C55.9360944 104.8056805 48.45203983 101.48067893 41.4375 95.875 C39.6025965 94.27534054 37.78991968 92.64983901 36 91 C35.13117188 90.20078125 34.26234375 89.4015625 33.3671875 88.578125 C19.65081013 75.40704703 8.43491695 57.59363248 0.3112793 40.4050293 C-4.058077 31.22311472 -9.28173815 21.35618851 -16.7890625 14.32421875 C-18 13 -18 13 -18.0625 9.625 C-16.66419624 4.8543166 -15.02627072 3.79373887 -11 1 C-7.51939214 -0.74030393 -3.80569795 -0.44507315 0 0 Z " fill="#E93666" transform="translate(188,45)"/>
<path d="M0 0 C1.32 0.66 2.64 1.32 4 2 C4 7.61 4 13.22 4 19 C5.69769531 18.94199219 7.39539063 18.88398437 9.14453125 18.82421875 C11.36716009 18.77732785 13.58981855 18.73182698 15.8125 18.6875 C16.93205078 18.64560547 18.05160156 18.60371094 19.20507812 18.56054688 C20.27822266 18.54443359 21.35136719 18.52832031 22.45703125 18.51171875 C23.44678955 18.48553467 24.43654785 18.45935059 25.45629883 18.43237305 C28 19 28 19 29.83959961 21.39282227 C31.61875261 25.39020811 30.84743704 27.76281481 30 32 C29 33 29 33 26.59155273 33.11352539 C25.54942627 33.10828857 24.5072998 33.10305176 23.43359375 33.09765625 C22.42095459 33.09515869 21.40831543 33.09266113 20.36499023 33.09008789 C19.06891846 33.08098389 17.77284668 33.07187988 16.4375 33.0625 C10.2809375 33.0315625 10.2809375 33.0315625 4 33 C4.495 50.82 4.495 50.82 5 69 C12.62223359 72.04715739 12.62223359 72.04715739 19.375 71.25 C20.59316406 70.94835937 20.59316406 70.94835937 21.8359375 70.640625 C23.56778476 70.12794819 25.28654758 69.57115081 27 69 C28.03612271 70.40552299 29.05344925 71.82491694 30.0625 73.25 C30.63097656 74.03890625 31.19945312 74.8278125 31.78515625 75.640625 C33 78 33 78 32.94921875 80.16015625 C31.65226694 82.67400112 30.34720409 83.13399834 27.75 84.1875 C26.98171875 84.51105469 26.2134375 84.83460938 25.421875 85.16796875 C17.72437957 87.81243089 8.27684248 88.43440689 0.5 85.8125 C-5.85913181 82.51937817 -9.80816916 77.83805808 -12 71 C-12.56431766 65.88698171 -12.51563522 60.80272531 -12.4609375 55.66796875 C-12.45854952 54.18443462 -12.4576485 52.70089742 -12.4581604 51.21736145 C-12.45504685 48.12330936 -12.43858612 45.02972543 -12.41162109 41.93579102 C-12.37749384 37.97008164 -12.36999754 34.00488155 -12.37151146 30.03904247 C-12.37096805 26.98241822 -12.36000811 23.92590527 -12.34550858 20.86931801 C-12.33914844 19.40648552 -12.33520351 17.94364047 -12.33372116 16.48079491 C-12.32938845 14.4418216 -12.31030587 12.40289565 -12.29052734 10.36401367 C-12.28290375 9.20455734 -12.27528015 8.04510101 -12.26742554 6.85050964 C-12 4 -12 4 -10 1 C-6.46029282 -0.17990239 -3.71816101 -0.19569268 0 0 Z " fill="#64318F" transform="translate(483,69)"/>
<path d="M0 0 C4.35592492 3.19115379 7.14746449 7.19674351 8.1328125 12.5625 C8.79479577 21.58838722 8.04116107 27.19997715 3.0078125 34.75 C-0.82057004 39.01264683 -5.76804359 41.13552816 -11.390625 41.91015625 C-19.06402933 42.18167671 -25.01276828 40.58818839 -30.6796875 35.3125 C-35.99833737 29.48384261 -37.40280277 23.96126588 -37.1484375 16.203125 C-36.42791128 9.43818436 -32.89116782 3.9913847 -27.8671875 -0.4375 C-19.42756291 -5.78070752 -8.38451494 -4.7449345 0 0 Z M-20.7421875 11.6875 C-23.13533633 14.9252896 -23.94927898 16.54001725 -23.8671875 20.5625 C-22.03706848 24.36914756 -20.70568646 26.13433032 -16.9296875 28.0625 C-13.34141216 28.64834087 -11.96353849 28.43660718 -8.8671875 26.5625 C-6.14062435 23.90962774 -4.99549437 22.33234123 -4.3671875 18.5625 C-4.98252653 14.87046584 -6.28335136 13.22233132 -8.8671875 10.5625 C-13.24033566 8.37592592 -16.89206577 8.84175785 -20.7421875 11.6875 Z " fill="#497ABD" transform="translate(115.8671875,138.4375)"/>
<path d="M0 0 C4.75476491 3.66530723 8.08419353 8.77618924 9.19921875 14.6953125 C9.78002709 21.4326893 8.62633062 26.80795552 5.19921875 32.6953125 C0.64368298 37.95841021 -4.07535796 41.26427727 -11.11328125 41.90625 C-17.83399699 42.17261983 -23.47660222 41.47881181 -28.74609375 37.06640625 C-33.35301694 32.29563852 -36.04771964 27.32034815 -36.80078125 20.6953125 C-36.55720888 13.06662598 -34.9570428 7.3672002 -29.80078125 1.6953125 C-29.14078125 1.6953125 -28.48078125 1.6953125 -27.80078125 1.6953125 C-27.80078125 1.0353125 -27.80078125 0.3753125 -27.80078125 -0.3046875 C-18.48737193 -4.60318411 -9.12282542 -5.14168905 0 0 Z M-22.80078125 14.6953125 C-24.26099931 18.04522453 -23.91859666 19.3487966 -22.73828125 22.8203125 C-20.37607258 26.32552536 -18.8369004 27.45342969 -14.80078125 28.6953125 C-11.10591599 28.13168899 -8.7381162 27.48146439 -5.86328125 25.0703125 C-4.30543192 21.58806106 -4.03279346 18.38896805 -4.80078125 14.6953125 C-6.69727676 11.54872584 -6.69727676 11.54872584 -9.80078125 9.6953125 C-16.01670875 8.56514386 -18.70626967 10.30833581 -22.80078125 14.6953125 Z " fill="#EA3A60" transform="translate(215.80078125,138.3046875)"/>
<path d="M0 0 C1.60488281 0.05607422 1.60488281 0.05607422 3.2421875 0.11328125 C4.31726563 0.13777344 5.39234375 0.16226563 6.5 0.1875 C9.1171875 0.42578125 9.1171875 0.42578125 10.1171875 1.42578125 C10.21128229 3.45072356 10.23461872 5.47897995 10.23071289 7.50610352 C10.23063736 8.80737686 10.23056183 10.10865021 10.23048401 11.44935608 C10.22537659 12.88030027 10.22016058 14.31124407 10.21484375 15.7421875 C10.21297953 17.19807385 10.21155565 18.65396082 10.21055603 20.10984802 C10.20673115 23.94857504 10.19690114 27.78726444 10.18585205 31.62597656 C10.17563728 35.54035941 10.17105827 39.45474831 10.16601562 43.36914062 C10.15527883 51.05470666 10.13768229 58.7402339 10.1171875 66.42578125 C4.8371875 66.42578125 -0.4428125 66.42578125 -5.8828125 66.42578125 C-5.95061009 58.41106349 -6.00564081 50.39656895 -6.03824902 42.38164139 C-6.05389992 38.65991811 -6.07512728 34.93840132 -6.10913086 31.21679688 C-6.14174545 27.62470217 -6.15966984 24.032806 -6.16744423 20.44057465 C-6.17298402 19.07063421 -6.18380202 17.70070454 -6.20000267 16.33084869 C-6.22180205 14.41110342 -6.22303812 12.49115807 -6.22338867 10.57128906 C-6.23005051 9.47874817 -6.23671234 8.38620728 -6.24357605 7.26055908 C-5.68752936 2.89130159 -4.45694641 0.65827528 0 0 Z " fill="#65328F" transform="translate(534.8828125,87.57421875)"/>
<path d="M0 0 C3 1 3 1 4.125 3.25 C4.94507157 5.8273678 5.54334697 8.33619068 6 11 C5.10796875 11.69609375 4.2159375 12.3921875 3.296875 13.109375 C0.08767952 15.7918561 -2.37473887 18.82158964 -4.75 22.25 C-5.17192627 22.84772217 -5.59385254 23.44544434 -6.02856445 24.0612793 C-9.81624105 29.52722681 -13.13279815 35.24087209 -16.44677734 41.00146484 C-26.00293837 57.48271038 -26.00293837 57.48271038 -33.1484375 59.65234375 C-37.25495482 60.17826614 -39.43117227 60.27347487 -43.25 58.4375 C-47.14081544 54.98882268 -50.10728613 51.3390708 -53 47 C-52.625 44.8125 -52.625 44.8125 -52 43 C-48.52509092 44.15830303 -47.92236257 45.15765645 -45.75 48 C-43.16947068 51.03334947 -42.21120809 51.92840404 -38.3125 53.25 C-35.01714398 53.31587503 -35.01714398 53.31587503 -33.05859375 51.4375 C-30.51759998 48.42880908 -28.62983331 45.1902694 -26.75 41.75 C-26.36086426 41.04979736 -25.97172852 40.34959473 -25.57080078 39.62817383 C-22.86593659 34.71388 -20.34343142 29.72370585 -17.875 24.6875 C-8.66053672 5.99575619 -8.66053672 5.99575619 0 0 Z " fill="#4B72B2" transform="translate(96,97)"/>
<path d="M0 0 C3.07504636 2.02822207 4.66581629 3.49753176 5.48046875 7.16015625 C5.74203371 11.39468093 5.34599732 13.48624641 2.9375 17.0625 C-0.75024203 19.49484049 -2.65504309 19.62070813 -7 19 C-11.6 16.8 -11.6 16.8 -13 14 C-13.51968957 9.5868984 -13.85380637 6.13840849 -11.125 2.5 C-7.27574306 -0.21712255 -4.738513 -0.48188268 0 0 Z " fill="#64318E" transform="translate(541,58)"/>
<path d="M0 0 C0.99 0.33 1.98 0.66 3 1 C0.69 3.31 -1.62 5.62 -4 8 C-4 5 -4 5 -2 2 C-1.34 2 -0.68 2 0 2 C0 1.34 0 0.68 0 0 Z " fill="#E5237E" transform="translate(188,138)"/>
</svg>
